<svg width="1610" height="972" viewBox="0 0 1610 972" fill="none" xmlns="http://www.w3.org/2000/svg">
<path fill-rule="evenodd" clip-rule="evenodd" d="M1144.07 13.6675C978.775 -35.0044 805.32 59.5381 756.648 224.834L685.468 466.572C680.473 483.534 661.598 493.236 644.725 487.949C643.341 487.515 641.951 487.093 640.554 486.682C509.398 448.062 371.768 523.078 333.148 654.234C294.529 785.391 369.545 923.021 500.701 961.64C592.052 988.539 686.543 960.311 748.533 896.384C784.972 858.807 846.422 839.21 896.634 853.995L1138.37 925.176C1303.67 973.848 1477.12 879.305 1525.8 714.009L1596.98 472.271C1645.65 306.975 1551.11 133.52 1385.81 84.8481L1144.07 13.6675Z" fill="#FEBC0A" fill-opacity="0.7"/>
<path fill-rule="evenodd" clip-rule="evenodd" d="M448.633 402.386C444.3 397.316 443.921 389.749 448.223 384.651C520.867 298.556 541.596 196.427 491.986 138.374C433.143 69.5165 297.627 88.7393 189.303 181.309C80.9793 273.879 40.8668 404.741 99.7095 473.598C104.043 478.669 104.421 486.236 100.12 491.334C27.4756 577.429 6.74647 679.557 56.3569 737.611C115.2 806.468 250.715 787.245 359.039 694.676C467.363 602.106 507.476 471.244 448.633 402.386Z" fill="#FEBC0A" fill-opacity="0.7"/>
</svg>
